<svg id="Layer_1" data-name="Layer 1" xmlns="http://www.w3.org/2000/svg" viewBox="0 0 348.7 348.7"><defs><style>.cls-1{fill:#4687c7;}</style></defs><title>0</title><path class="cls-1" d="M19.9,248.9c-4.1-15.5,4.8-33.7,20.1-39.1a33.4,33.4,0,0,1,23.5.5,32.4,32.4,0,0,1,17.2,15.6c6.9,12.9,9.8,33.4,27.4,35.9,8.9,1.3,17.6-3,23.9-9.1s10.8-16.2,13.7-25.4,5.1-19.3,10.4-27.7c4.4-6.8,11.2-13.4,19.6-14.5,16.5-2,25.3,16.1,29.9,29,2.7,7.7,4.7,15.6,8.3,23s8.3,14.2,15,18.8a23.2,23.2,0,0,0,22.5,2.3c8.2-3.6,13.6-11.5,16.8-19.5,4.1-10.1,4.6-21.2,7.7-31.5A54.6,54.6,0,0,1,291.1,183c5.8-5.4,14.7-11.2,22.1-5.2,5.3,4.2,8.2,10.8,13.1,15.6a18.3,18.3,0,0,0,8.6,5c3.1.8,4.4-4,1.3-4.8-6.5-1.6-10.1-8.2-13.8-13.1a32.3,32.3,0,0,0-7.5-7.7,16.1,16.1,0,0,0-11.7-2.4c-5.2.9-9.8,4.1-13.7,7.4a56.2,56.2,0,0,0-9.9,10.8c-6.2,8.6-9.2,18.4-11.2,28.7s-3.5,20-9.6,28.3c-4.7,6.5-12.3,11-20.4,9.1s-12.9-7.8-16.8-14-7-14.7-9.4-22.6C207.7,204,200.7,185.7,185,181c-8.6-2.6-17.3.1-24.1,5.6s-11.9,14.5-15,23.3-5.5,20.4-10.4,29.7c-4,7.7-10.7,14.6-19.3,16.8s-15.1-1.3-19.6-7.8S90,234,86.7,226.8,78,212.5,70.5,208.2a38.8,38.8,0,0,0-24.3-5c-17.5,2.2-30.5,17.3-32.2,34.6a34.5,34.5,0,0,0,1.1,12.4c.8,3.1,5.6,1.8,4.8-1.3Z"/><path class="cls-1" d="M164.6,144.9c0-15.3,7.5-31.9,23.4-36.1a23.3,23.3,0,0,1,20,3.5c5.1,3.9,8.8,9.4,12.8,14.4s8.3,9.8,14.4,11.8,14.3-.3,19.4-5.4,8.5-12.7,10.9-20,4.7-14.5,10.1-19.7,14.1-6.3,21.5-4.3,15.4,8,21.6,13.9c1.7,1.5,3.2,3.1,4.8,4.7s5.9-1.3,3.6-3.6c-6.6-6.5-13.5-13.2-21.9-17.3s-17.2-5.2-25.3-2S267.2,95,264,102.6s-4.6,14.9-8.7,21.5-9.1,11-16.3,10.1a15.6,15.6,0,0,1-3.7-1,17.6,17.6,0,0,1-3.7-2.3,48.7,48.7,0,0,1-6.3-6.5c-4.2-5.1-8-10.8-13.1-15.1a27.6,27.6,0,0,0-22.1-6,32.8,32.8,0,0,0-20.7,11.9,45.5,45.5,0,0,0-9.4,23.5,42.1,42.1,0,0,0-.4,6.2c0,3.2,5,3.2,5,0Z"/></svg>