<svg id="Layer_1" data-name="Layer 1" xmlns="http://www.w3.org/2000/svg" viewBox="0 0 340.2 340.2"><defs><style>.cls-1{fill:#4a9ed7;}.cls-2{fill:#fff;}</style></defs><title>0</title><rect class="cls-1" x="142.8" y="11.8" width="45.3" height="316.56"/><path class="cls-2" d="M152.5,317.3c7.6,1.3,16,1.2,23.2-2a16.9,16.9,0,0,0,7.9-6.8,14.4,14.4,0,0,0,.8-12,22.9,22.9,0,0,0-9.2-10.5c-4.2-2.7-9.1-4-13.9-5.3s-9.9-2.6-14.1-5.5a14.7,14.7,0,0,1-6-9.2c-.7-3.4.3-6.8,3.6-8.5s8.6-1.7,12.8-2a34.4,34.4,0,0,0,23.1-12.3c5.8-6.8,9.1-15.8,8.1-24.8a35.7,35.7,0,0,0-12.3-22.9,33.3,33.3,0,0,0-11.8-6.5c-5.1-1.7-10.6-1.7-16-1.6s-11,.6-16.1-1.3-7.5-4.3-9-8.1a7.8,7.8,0,0,1-.3-5.4l-2.4,1.8c13.6.5,28.8.1,39.9-8.9,8.8-7.2,14-20.6,8.4-31.2s-17.3-12-25.4-18.7c-4-3.4-6.4-8-5.9-13.4s4.1-10.9,8-14.8,11.9-8.2,18.4-11.3,13.9-6.6,19.7-11.7a2.5,2.5,0,0,0-.5-3.9l-12.8-7.9c-2.7-1.7-5.2,2.6-2.5,4.3L181,64.8l-.5-3.9c-10.1,8.9-24,11.5-34.5,19.7s-16.9,20.2-11.1,31.8c4.9,10,16.8,12.3,24.9,18.6a16.1,16.1,0,0,1,6.7,12.5,22.9,22.9,0,0,1-5.2,14.4c-9.5,11.8-26.6,12-40.4,11.5a2.5,2.5,0,0,0-2.4,1.8c-2.9,9.6,6.1,18.1,14.6,20.3,10.4,2.7,21.5-1.1,31.7,2.8a30.5,30.5,0,0,1,17,16.6,27.3,27.3,0,0,1-1.1,23.5A31,31,0,0,1,162,249.7c-8.1,2.2-19.5-.8-24.5,8s.6,17.3,7.1,21.8c8.3,5.7,19.1,5.4,27.6,10.6,3.4,2,6.7,5.1,7.8,9.1a8.8,8.8,0,0,1-.1,5.1,8.5,8.5,0,0,1-1.9,3.5c-4.5,4.8-12.7,5.5-19.2,5.2a38,38,0,0,1-5-.6,2.7,2.7,0,0,0-3.1,1.8,2.6,2.6,0,0,0,1.8,3.1Z"/></svg>