<svg id="Layer_1" data-name="Layer 1" xmlns="http://www.w3.org/2000/svg" viewBox="0 0 262.3 262.3"><defs><style>.cls-1{fill:#ed686b;}.cls-2{fill:#f5aeb1;}.cls-3{fill:#ffdc15;}</style></defs><title>0</title><circle class="cls-1" cx="135.7" cy="119.7" r="92.8"/><path class="cls-2" d="M161,213.7l10.4,11.1a2.5,2.5,0,0,0,4.3-1.7,36.8,36.8,0,0,1,2.5-13.7c.3-.8.8-2.3,1.5-2.6s2.7.4,3.6.6l4.6,1.3c3.2,1,6.3,2.1,9.4,3.4,1,.5,2.3-.3,2.8-1.1a2.4,2.4,0,0,0-.4-3,16.7,16.7,0,0,1-4.3-11.2l-2.5,2.5c7.1-.5,14.3-.7,21.4-.5a2.5,2.5,0,0,0,2.1-3.8,24.1,24.1,0,0,1-3.1-12l-2.5,2.5,13.6-.2c3.3-.1,8.4.5,10.4-2.9,1.1-1.9.5-4-.6-5.7l-3.7-5.9-3.7-5.9a8,8,0,0,1-1.3-2.4c0-.4-.1.1,0-.2a3.1,3.1,0,0,1,.9-.7c4-3.1,8.3-6,12.5-8.9,1-.8,1.7-2.3.9-3.4-1.8-2.6-4.5-3.2-7.4-3.5l-1.9-.2h-1.3l-.5-.2-.4-.2h0c.2.2.2.3.1.1l-.2-.2c.2.2.2.2.1,0s1.8-3.1,2.7-4.3l4.1-5.5,8.2-11.1c1.2-1.6-.5-3.7-2.2-3.7a31.1,31.1,0,0,1-14.8-4.4v4.3a37.8,37.8,0,0,0,17.3-15.3,2.5,2.5,0,0,0-1.4-3.7l-12.1-4.1a47.2,47.2,0,0,1-5.3-1.8c-.3-.1-.9-.3-1-.6s.4-1.9.6-2.4c2.7-8.2,5.5-16.4,8.2-24.6a2.5,2.5,0,0,0-3.1-3l-9.7,2.9-1.9.5h-.5c-.3,0-.4-.2-.2,0s0-.8,0-.9V64.8l-.3-20.3a2.5,2.5,0,0,0-4.3-1.7L200.4,55.7c-2.3,2.4,1.3,5.9,3.5,3.6l12.3-13-4.3-1.8.2,11.9c0,3.9-.1,7.8.2,11.7a5.2,5.2,0,0,0,2.5,4.5,7.2,7.2,0,0,0,5,.2c3.7-.9,7.4-2.2,11.1-3.3l-3.1-3.1-4.6,13.7-2.4,7.1c-.7,2.1-1.7,4.3-1.9,6.5-.6,5.3,4.6,6.5,8.5,7.8l13.4,4.5-1.5-3.7a33.3,33.3,0,0,1-15.6,13.6c-1.7.8-1.4,3.5,0,4.3a38.2,38.2,0,0,0,17.4,5.1l-2.1-3.8-8.8,11.9-4.4,5.9c-1.3,1.8-2.7,3.6-2.5,6s3.1,4.7,6,5.2l2.3.2,1.7.2,1.7.5c-.5-.2.3.2.4.3s.4.6.1.1l.8-3.4L225.6,156c-1.6,1.1-3.5,2.2-4.5,4s-.5,4.3.7,6.2c2.2,3.8,4.6,7.4,6.9,11.1l.9,1.5c.2.3.4.9.7,1.1v.2c-.1-.4.5-.2-.1-.2l-1.3.3h-3.1l-15.1.3a2.5,2.5,0,0,0-2.5,2.5,29.3,29.3,0,0,0,3.8,14.5l2.2-3.7c-7.1-.2-14.3,0-21.4.5a2.6,2.6,0,0,0-2.5,2.5,20.9,20.9,0,0,0,5.8,14.7l2.4-4.2a96.9,96.9,0,0,0-10.7-3.8l-5.5-1.4a7.5,7.5,0,0,0-5.3.4,8.7,8.7,0,0,0-3,3.8,47.6,47.6,0,0,0-1.9,5.3,37.1,37.1,0,0,0-1.5,11.5l4.2-1.8-10.4-11.2c-2.2-2.3-5.7,1.2-3.5,3.6Z"/><path class="cls-3" d="M81,118.8a157.3,157.3,0,0,0-63.2,30.4A131.7,131.7,0,0,0,3.2,162.5c-1.2,1.2-.9,3.8,1.1,4.1,7,1.1,13.7-.6,20.3-3s12.5-4.5,18.7-7c12.3-4.8,24.4-10.1,36.3-15.8s23.6-11.8,35.1-18.3,20.8-11.8,29.9-19.4S161.3,85.5,162,73.3a2.6,2.6,0,0,0-4.3-1.8A253.4,253.4,0,0,0,113,132.1c-3.3,6.2-6.3,12.5-9.1,19-.4,1.2-.4,2.4.7,3.2a2.5,2.5,0,0,0,3.3-.2,258.2,258.2,0,0,0,31.6-48.4c2.4-4.8,4.7-9.7,6.8-14.7l-4.6-1.9-21.3,76.5-6,21.7a2.5,2.5,0,0,0,4.5,1.9l33.6-61.1,9.5-17.3-4.7-1.2-4.5,50.3c-.2,2.7,3.4,3.2,4.7,1.3l27.2-41.9c1.7-2.7-2.6-5.2-4.4-2.5l-27.1,41.9,4.6,1.2,4.5-50.3c.3-2.6-3.5-3.4-4.6-1.3l-33.6,61.1-9.5,17.3,4.6,1.9,21.3-76.5,6-21.7a2.5,2.5,0,0,0-1.4-3,2.5,2.5,0,0,0-3.1,1.1,257.9,257.9,0,0,1-28,49.6c-3.1,4.2-6.3,8.4-9.7,12.5l4,3a249.1,249.1,0,0,1,38.7-63c4.5-5.4,9.3-10.6,14.2-15.5L157,73.3c-.5,9.9-6.7,18.1-13.9,24.5s-18.3,13.1-28,18.6a541.1,541.1,0,0,1-68.4,33.5c-6.6,2.7-13.2,5.2-19.9,7.7s-14,5.3-21.2,4.2L6.7,166a152.3,152.3,0,0,1,57.1-37,145.5,145.5,0,0,1,18.5-5.4c3.1-.7,1.8-5.6-1.3-4.8Z"/></svg>