<svg id="Layer_1" data-name="Layer 1" xmlns="http://www.w3.org/2000/svg" xmlns:xlink="http://www.w3.org/1999/xlink" viewBox="0 0 345.8 345.8"><defs><style>.cls-1{fill:url(#linear-gradient);}.cls-2{fill:url(#linear-gradient-2);}.cls-3{fill:url(#linear-gradient-3);}</style><linearGradient id="linear-gradient" x1="336.34" y1="150.95" x2="64.75" y2="150.95" gradientUnits="userSpaceOnUse"><stop offset="0" stop-color="#fbd337"/><stop offset="1" stop-color="#a4c7a7"/></linearGradient><linearGradient id="linear-gradient-2" x1="69.81" y1="109.95" x2="9.74" y2="109.95" xlink:href="#linear-gradient"/><linearGradient id="linear-gradient-3" x1="130.23" y1="266.06" x2="75.39" y2="266.06" xlink:href="#linear-gradient"/></defs><title>0</title><path class="cls-1" d="M78.5,102.4c-33.1,52.3.7,141.5,26.4,144,17,1.6,18.3-35.8,60.4-62.7,34.1-21.8,85.3-30.6,124.2-12.1,25.9,12.3,34.8,31.2,41.8,27.5,11.1-5.9,4.6-63-26.4-97.8C251.8,41.6,119,38.4,78.5,102.4Z"/><path class="cls-2" d="M62.5,130.4H24.8c-3-.2-6.5-.7-8.7-2.6s-4.4-8.3-2.4-12,10.2-4.9,15-2.4a37.5,37.5,0,0,1,9.4,7.4c3.3,3.2,6.6,6.4,9.8,9.7l3.1-3.9a66.4,66.4,0,0,1-14.9-10.7c-3.7-3.8-7.5-9.2-7.7-14.4a12.5,12.5,0,0,1,1.5-6.3,5.4,5.4,0,0,1,1.6-2.1l.7-.4a2.5,2.5,0,0,1,1.4-.3c2.1,0,3.8,2,4.9,4s2.7,6.1,4,9.1l10,24.7a2.6,2.6,0,0,0,2.8,1.8,2.7,2.7,0,0,0,2.2-2.4c.1-7-2.7-13.4-4.5-20-1.5-5.1-2.7-12.1.9-16.7a9.4,9.4,0,0,1,4.9-3.1,6,6,0,0,1,5.4.6c1.8,1.2,2.4,3.8,2.5,6a66.8,66.8,0,0,1-.1,10c-.3,8.3-1,16.6-2,24.9-.2,1.3,1.3,2.5,2.5,2.5a2.6,2.6,0,0,0,2.5-2.5c1-8.1,1.7-16.3,2-24.4a71.1,71.1,0,0,0,.1-11.3c-.3-3.2-1.3-6.5-3.8-8.6-4.5-4-11.3-2.8-15.7.6S46,99.3,47,105.6c1.2,8.1,5.7,15.6,5.5,24l4.9-.7L47.3,104.2a78.4,78.4,0,0,0-4.6-10.7c-1.7-2.8-4.2-5.4-7.6-5.9-6.4-1-10.6,4.8-11.4,10.5s2.1,13.2,6.2,18.3,11.7,10.7,18.5,14.5c2.5,1.3,5.1-1.9,3.1-4s-6.5-6.3-9.7-9.5a43.9,43.9,0,0,0-9.5-7.7C26,106,16.4,104.9,11,111s-4.2,11.9-1,17.2a14.5,14.5,0,0,0,7.7,6.1c4.1,1.3,8.6,1.1,12.8,1.1h32c3.2,0,3.2-5,0-5Z"/><path class="cls-3" d="M98.7,242.9c-8.1,10.1-16.3,20.2-24.3,30.4a3.3,3.3,0,0,0-.5,4.1c.9,1.4,2.7,1.7,4.1,2.1a23.4,23.4,0,0,0,8.7,1.1,12.4,12.4,0,0,0,7.1-3.1c2.1-2,2.9-4.6,3.3-7.4s.5-6.8.7-10.2l.6-11-4.6,1.3c3,4.7,2.1,11.2,2.1,16.6v10.4a21.7,21.7,0,0,0,.9,7.6c1,2.6,3.2,5,6.2,5.1s5-2.8,5.8-5.6a31.2,31.2,0,0,0-.6-18.4c-2.1-6.8-5.9-13-9.6-19l-3.4,3.4c2.7,1.5,4.4,4,6,6.6s3.7,6.2,5.7,9.2,4.3,6.3,6.6,9.3a38.6,38.6,0,0,0,7.3,7.8c2.6,2,6.9,4.7,9.7,1.6s2.2-7.4,1-10.6a22.9,22.9,0,0,0-6.1-8.7c-2.8-2.6-5.8-5-8.8-7.4-6.7-5.4-13.7-10.5-20.9-15.3-2.7-1.8-5.2,2.6-2.5,4.3,5.8,3.9,11.4,7.9,16.9,12.2l8,6.5a38.7,38.7,0,0,1,6.8,6.6c1.7,2.2,3,5.1,2.3,7.9a3.2,3.2,0,0,0-.3.9l-.2.3c-.2.1,0,.1.6-.3l-1.7-.8a17.7,17.7,0,0,1-3.5-2.6,50.5,50.5,0,0,1-5.9-7.1c-2.1-2.8-4-5.6-5.9-8.5-3.6-5.6-6.5-12.8-12.6-16.2-2.1-1.2-4.8,1.3-3.4,3.4,5.6,9,11.8,19,10.5,30.1-.2,1.3-.5,2.5-.8,3.7l-.5,1.2c-.1.2-.6.6-.1.5-1.6.3-2.2-2.6-2.3-3.6a44.5,44.5,0,0,1-.2-7.3v-9.2c.1-5.7.5-12.1-2.8-17.1a2.5,2.5,0,0,0-4.7,1.2l-.7,11.7-.3,5.7a26.3,26.3,0,0,1-.6,4.8,5.9,5.9,0,0,1-5.2,4.5,14.3,14.3,0,0,1-4.6-.3l-2.7-.6a5.4,5.4,0,0,1-1.9-.7l.9.9h0v1.3c-.1.4.4-.4.4-.4l.8-1,1.6-2,2.9-3.7,6.1-7.6,12.2-15.2a2.6,2.6,0,0,0,0-3.5,2.5,2.5,0,0,0-3.6,0Z"/></svg>