<svg id="Layer_1" data-name="Layer 1" xmlns="http://www.w3.org/2000/svg" xmlns:xlink="http://www.w3.org/1999/xlink" viewBox="0 0 255.1 255.1"><defs><style>.cls-1{fill:url(#linear-gradient);}</style><linearGradient id="linear-gradient" x1="29.69" y1="127.56" x2="225.43" y2="127.56" gradientUnits="userSpaceOnUse"><stop offset="0" stop-color="#ffed33"/><stop offset="0.35" stop-color="#e9e345"/><stop offset="1" stop-color="#0091a2"/></linearGradient></defs><title>0</title><path class="cls-1" d="M121.5,49.3c-9.5,1.2-20.2-5.5-28,0-3.6,2.6-5.2,7.1-6.6,11.3s-3.2,11,.1,15.1,7.6,4.1,10.3,7.4,2.3,6.3,2.4,9.7c.2,6.4.4,13.2-2.6,18.9S89.2,120.8,84,124c-11.4,6.9-23.8,12.2-34.4,20.3s-19.5,19.9-19.9,33.2c-.1,4.4.8,8.9,3.5,12.4s9.8,6.4,15.5,5.5,10.7-4.3,14.7-8.5c2.3-2.5,4.8-5.6,8.2-5.6s6.6,4.1,6.9,7.9-.8,7.7-.9,11.6,1.3,8.3,4.8,9.7,8.2-1.2,9.9-4.8,1.4-7.9.9-11.9-1.3-8.1-.4-12c1.6-6.6,8-11.5,14.7-12.1s13.5,2.6,18,7.7,6.9,12.1,9.5,18.7c6.8,17.3,18.3,35.1,36.5,39.1s35.5-7.2,42.2-23.4,2.3-35.7-9.1-49c-4.2-4.9-9.7-10.7-7.5-16.8a14,14,0,0,1,3.9-5.2,63.6,63.6,0,0,1,14.7-10c2.5-1.2,5.2-2.3,7.2-4.3s3.3-5.1,2-7.7a8.8,8.8,0,0,0-3.5-3.4,36.4,36.4,0,0,0-16.2-5.5c-5.6-.6-12.6-.6-15.1-5.7s1.8-11,5.9-15.1,9.7-9.5,13.8-14.8,8-12.9,7.3-20.2c-1.2-11-14-19.1-24.4-15.4-1.8.6-3.6,1.6-5.5,1.6s-6-2.4-7.7-5.2-2.7-5.9-4.4-8.6c-5.5-8.4-19.1-9.9-26.2-2.8-4.6,4.4-6.2,11-9.5,16.4s-9.9,10.2-15.6,7.4"/></svg>