<svg id="Layer_1" data-name="Layer 1" xmlns="http://www.w3.org/2000/svg" xmlns:xlink="http://www.w3.org/1999/xlink" viewBox="0 0 209.8 209.8"><defs><style>.cls-1{fill:#6a519d;}.cls-2{fill:url(#linear-gradient);}.cls-3{fill:url(#linear-gradient-2);}.cls-4{fill:url(#linear-gradient-3);}.cls-5{fill:url(#linear-gradient-4);}</style><linearGradient id="linear-gradient" x1="53.28" y1="91.31" x2="48.66" y2="91.31" gradientUnits="userSpaceOnUse"><stop offset="0" stop-color="#fbd337"/><stop offset="1" stop-color="#a4c7a7"/></linearGradient><linearGradient id="linear-gradient-2" x1="84.31" y1="102.01" x2="78.57" y2="102.01" xlink:href="#linear-gradient"/><linearGradient id="linear-gradient-3" x1="114.29" y1="102.71" x2="113.29" y2="102.71" xlink:href="#linear-gradient"/><linearGradient id="linear-gradient-4" x1="160.14" y1="109.37" x2="149.47" y2="109.37" xlink:href="#linear-gradient"/></defs><title>0</title><polygon class="cls-1" points="28.1 48.2 28.1 169.7 204.8 108.9 28.1 48.2"/><path class="cls-1" d="M26.7,48.6V168.3a8.6,8.6,0,0,0,0,1.6v.2c0,.7,1.7.3,2,.2l4.7-1.6,12.9-4.5,19-6.5,23.1-8,25.4-8.7,25.7-8.8,23.9-8.3,20.2-6.9,14.6-5c2.3-.8,4.6-1.5,6.8-2.4h.3c.4-.1,1.5-1,.6-1.3l-4.7-1.6-12.9-4.4-19-6.6-23.1-7.9L120.8,79,95.1,70.1,71.2,61.9,51,54.9l-14.6-5-6.8-2.3h-.3a2.3,2.3,0,0,0-2.1.3c-.3.2-.9.8-.2,1.1l4.7,1.6,12.8,4.4,19.1,6.6,23.1,7.9,25.4,8.7L137.8,87l23.9,8.2,20.2,7,14.5,5,4.6,1.5a9,9,0,0,0,2.3.8h.3l.6-1.2-4.7,1.6-12.9,4.4-19,6.6-23.1,7.9-25.4,8.7-25.7,8.9-23.9,8.2-20.3,7-14.5,5c-2.3.7-4.6,1.4-6.9,2.3h-.3l2.1.2V49.6a8.6,8.6,0,0,0,0-1.6.1.1,0,0,1,0-.2C29.6,46.9,26.7,47.4,26.7,48.6Z"/><path class="cls-2" d="M55.3,163.7l-1.4-56.4L52.5,50.9,51.7,19c-.1-3.2-5.1-3.3-5,0l1.4,56.3,1.4,56.4.8,32c.1,3.2,5.1,3.2,5,0Z"/><path class="cls-3" d="M84.9,163.6a657.3,657.3,0,0,0-.7-96.2c-.7-9-1.6-18-2.6-27a2.6,2.6,0,0,0-2.5-2.5,2.4,2.4,0,0,0-2.5,2.5,670.9,670.9,0,0,1,4.5,96.1c-.2,9.1-.6,18.1-1.2,27.1a2.5,2.5,0,0,0,2.5,2.5,2.5,2.5,0,0,0,2.5-2.5Z"/><path class="cls-4" d="M116.3,151.6V53.8c0-3.2-5-3.2-5,0v97.8c0,3.2,5,3.2,5,0Z"/><path class="cls-5" d="M162,140.9A174.5,174.5,0,0,0,156.6,91c-1.2-4.6-2.6-9.2-4.2-13.7a2.6,2.6,0,0,0-3.1-1.8,2.6,2.6,0,0,0-1.8,3.1,168.3,168.3,0,0,1,9.5,48.2q.3,7,0,14.1c-.1,3.2,4.9,3.2,5,0Z"/></svg>