<svg id="Layer_1" data-name="Layer 1" xmlns="http://www.w3.org/2000/svg" xmlns:xlink="http://www.w3.org/1999/xlink" viewBox="0 0 438.7 438.7"><defs><style>.cls-1{fill:url(#linear-gradient);}</style><linearGradient id="linear-gradient" x1="212.88" y1="490.25" x2="212.88" y2="-79.74" gradientUnits="userSpaceOnUse"><stop offset="0.27" stop-color="#ffd432"/><stop offset="0.64" stop-color="#66c7ed"/></linearGradient></defs><title>0</title><path class="cls-1" d="M263.7,112.5c31.6,53.6,3.9,132.1-1.9,148.4-15.5,44-39.9,89.4-39.9,89.4-19.3,35.8-30.5,48.9-24.7,59,9.5,16.7,60.6,17.3,81.8-7.6,17.2-20.3.7-41.3,3.8-106.5,2.1-46.3,11-46.4,15.2-102.8,4.1-54.8,6.2-82.2-9.5-106.5C265.9,50.8,223.2,41.3,201,36.4c-35.2-7.8-74.9-5.6-76.1,1.9C122.8,50.5,226.3,48.8,263.7,112.5Z"/></svg>