<svg id="Layer_1" data-name="Layer 1" xmlns="http://www.w3.org/2000/svg" viewBox="0 0 360.1 360.1"><defs><style>.cls-1{fill:#aacb56;}.cls-2{fill:#e83479;}</style></defs><title>0</title><path class="cls-1" d="M131.5,137.2a588.2,588.2,0,0,1,16.9,69.3,601.7,601.7,0,0,1,8.1,70.8c.7,13.3.9,26.7.7,40.1,0,3.2,5,3.2,5,0a590.7,590.7,0,0,0-3.2-71.6,588.1,588.1,0,0,0-12.1-71c-3.1-13.1-6.6-26.1-10.6-39-.9-3-5.8-1.7-4.8,1.4Z"/><path class="cls-1" d="M147.4,329.6c1.3-26.3,2.7-52.7.4-79-2.1-23.3-7.2-46.4-17.1-67.7A140.1,140.1,0,0,0,109.9,151a2.6,2.6,0,0,0-3.6,0,2.5,2.5,0,0,0,0,3.5c14.7,16.7,24.2,37.1,29.9,58.4,6.4,23.8,8,48.5,7.8,73-.1,14.6-.9,29.2-1.6,43.7-.2,3.2,4.8,3.2,5,0Z"/><path class="cls-1" d="M162.2,320.9c.2-31,.4-61.9.4-92.9s-.1-61.6-.4-92.4c-.2-17.3-.3-34.6-.6-51.9,0-3.2-5-3.2-5,0,.4,31,.7,61.9.9,92.9s.1,61.6,0,92.4l-.3,51.9c-.1,3.2,4.9,3.2,5,0Z"/><path class="cls-1" d="M199.7,317.4c2.2-24.1,1.5-48.4.9-72.5s-1.1-48.1,1.9-72a205.5,205.5,0,0,1,8.7-38.8c1.1-3-3.7-4.3-4.8-1.3-7.8,22.8-10.4,47-11.1,71s.8,48.4.9,72.6c.1,13.7-.3,27.4-1.5,41-.2,1.3,1.2,2.5,2.5,2.5a2.7,2.7,0,0,0,2.5-2.5Z"/><path class="cls-1" d="M215.4,305.1c3-22.5,6.8-45.2,15.5-66.2,7.5-17.9,19.1-34.6,35-46a73.5,73.5,0,0,1,28.5-12.8l-1.3-4.8c-12.2,4-20.8,14.8-28.5,24.5a235.8,235.8,0,0,0-21.7,31.6,243.9,243.9,0,0,0-16.3,34.7c-4.4,11.6-8.3,23.8-10.3,36s-2,27.8,6.3,38.9a2.5,2.5,0,0,0,3.4.9,2.6,2.6,0,0,0,.9-3.4c-6.9-9.2-7.6-21-6.2-32.1a128.3,128.3,0,0,1,3.6-17.2c1.6-5.8,3.4-11.6,5.5-17.4a236.8,236.8,0,0,1,35.4-64.9c4.2-5.3,8.5-10.6,13.2-15.5s9.7-9.2,16-11.3a2.5,2.5,0,0,0-1.3-4.8c-19.4,3.9-36.3,16-48.7,31.2-14,17.1-22.2,38-27.2,59.3a375.4,375.4,0,0,0-6.8,39.3c-.2,1.3,1.3,2.5,2.5,2.5a2.6,2.6,0,0,0,2.5-2.5Z"/><path class="cls-1" d="M106.2,251.2c-7.9-1.5-17-3.1-24.3,1.2S71.7,263.2,74.3,270c.5,1.1,1.7,2.2,3.1,1.7a158.6,158.6,0,0,1,29.8-7.5c4.2-.7,8.9-1.5,12.8.9a14.7,14.7,0,0,1,5.9,8.8c1.4,5.3.6,11.1,0,16.5l4.9-.7c-1.5-9.8-.3-19.9-3.2-29.5-2.3-7.5-8-14.3-15.6-16.8a15.7,15.7,0,0,0-12.4.9c-2.8,1.6-.3,5.9,2.5,4.3,5.6-3,12,.4,16,4.7,5.6,6,6.3,14.4,6.7,22.2.2,5.2.4,10.4,1.1,15.6a2.6,2.6,0,0,0,2.8,1.8,2.7,2.7,0,0,0,2.2-2.5c1.1-9.6,1.8-21.1-6.3-28.1-4.1-3.4-9.1-4.1-14.2-3.6a150.3,150.3,0,0,0-16.3,2.9A169.5,169.5,0,0,0,76,266.9l3.1,1.7c-1.9-4.9,1.6-9.9,5.9-12.2,6-3.1,13.6-1.6,19.9-.4a2.6,2.6,0,0,0,3.1-1.7,2.6,2.6,0,0,0-1.8-3.1Z"/><polygon class="cls-2" points="65.5 127.3 91.1 136.5 146.5 66.8 219.5 112.5 244.1 133.5 288.3 89.1 234.9 78.2 208.8 30 182.5 45.6 153.8 21 140.4 35.3 96.3 45.6 65.5 127.3"/></svg>