<svg id="Layer_1" data-name="Layer 1" xmlns="http://www.w3.org/2000/svg" viewBox="0 0 184.1 184.1"><defs><style>.cls-1{fill:#8bc4ec;}.cls-2{fill:#4a9ed7;}</style></defs><title>0</title><circle class="cls-1" cx="92.6" cy="91.8" r="22.7"/><path class="cls-2" d="M96.9,127.9a37.4,37.4,0,0,0,7.7,34.9,2.5,2.5,0,0,0,4.2-1.1,117.5,117.5,0,0,0-1.4-53.4l-4.2,2.5a170.1,170.1,0,0,0,42.6,35.8c4.6,2.6,9.2,5.1,14,7.3a2.8,2.8,0,0,0,2.5,0c5.2-3.7,3.4-10.2,1.3-15.1a157.2,157.2,0,0,0-9.1-18.4,145.9,145.9,0,0,0-11.1-17,62.7,62.7,0,0,0-12.3-12.9c-5.3-4.1-11.6-6.9-18.3-6.9l1.7,4.2a60.9,60.9,0,0,0,15.7-28.5,57.2,57.2,0,0,0,1.4-8.1c.3-2.6.7-5.5-.5-7.9a5.6,5.6,0,0,0-6.7-2.9c-2.6.8-4.6,2.9-6.2,5-4.4,6-8.7,12.1-13,18.1l4.6,1.3a232.8,232.8,0,0,0-4.2-25c-1-4-2-8-3.1-12s-2-7.6-3.8-10.9-3.9-5.7-7.1-6.2-6.6,2.4-8.1,5.6A64.5,64.5,0,0,0,77,38.2a64,64,0,0,0,1.9,25.4L83,61.2a137.8,137.8,0,0,0-18.3-13c-3.1-1.8-6.7-4.4-10.4-4.3s-5.9,3-7.3,6c-4.7,9.9-3.2,21.9,2.9,30.9A29.2,29.2,0,0,0,63.9,92l-.6-4.5a55.9,55.9,0,0,0-22.2,28c-2.1,5.8-3.8,13.1.6,18.3s9.6,4.8,14.5,3.3c6.8-2.2,11.1-8.5,14.8-14.2,1.8-2.7-2.5-5.2-4.3-2.5-2.8,4.3-5.8,8.9-10.5,11.3s-8,1.7-10.6-1-1.1-9.9.3-13.9a50.6,50.6,0,0,1,7.3-13.3A48.8,48.8,0,0,1,65.9,91.8a2.6,2.6,0,0,0-.6-4.6C57,84.1,51.4,76,49.7,67.5a24.6,24.6,0,0,1,.7-12.9,13.1,13.1,0,0,1,1.2-2.7c.5-1,1.1-2.3,2.1-2.8s2.4.1,3.3.6,2.9,1.6,4.4,2.4A133,133,0,0,1,79.5,64.7c1.8,1.6,4.9.2,4.2-2.4a62.1,62.1,0,0,1,2.4-39.7A38.9,38.9,0,0,1,88,18.4c.5-.9,1-2.3,2.1-2.7s1.1,0,1.8.5a10.6,10.6,0,0,1,2.6,3.3,60.9,60.9,0,0,1,3.1,9.4c1,3.6,2,7.3,2.9,11.1a207.3,207.3,0,0,1,4.3,24.8,2.5,2.5,0,0,0,4.7,1.2l10.2-14a24.8,24.8,0,0,1,4.4-5.7,4.7,4.7,0,0,1,1.9-1.1c.4-.1.5,0,.7.6a6.6,6.6,0,0,1,.1,2.8l-.3,3.6a46.7,46.7,0,0,1-1.3,6.5,53.8,53.8,0,0,1-5,13A59.9,59.9,0,0,1,111,84.3a2.6,2.6,0,0,0,1.8,4.3c10.6.1,19,8.1,25.3,16a157.6,157.6,0,0,1,18.8,31.3,49,49,0,0,1,3.5,8.5,8.5,8.5,0,0,1,.3,3.2,2.7,2.7,0,0,1-.9,2h2.5a163.7,163.7,0,0,1-44.9-31,143,143,0,0,1-10.6-11.4c-1.7-2-4.8.2-4.2,2.5a112.7,112.7,0,0,1,1.4,50.7l4.1-1.1a32.7,32.7,0,0,1-6.4-30.1c.9-3.1-3.9-4.4-4.8-1.3Z"/></svg>