<svg id="Layer_1" data-name="Layer 1" xmlns="http://www.w3.org/2000/svg" viewBox="0 0 233.2 233.2"><defs><style>.cls-1{fill:#ec6508;}</style></defs><title>0</title><path class="cls-1" d="M55,154.2a267.2,267.2,0,0,1-31.1-43L20,114.3A203.2,203.2,0,0,0,62.3,145a2.5,2.5,0,0,0,3.7-2.8A163.5,163.5,0,0,1,62.7,74a149.8,149.8,0,0,1,4.4-19l-5-.7A114.1,114.1,0,0,0,79.7,103a127,127,0,0,0,8.9,11.9,2.5,2.5,0,0,0,3.6,0,152.2,152.2,0,0,1,45.3-36.4,132.7,132.7,0,0,1,14.8-6.9L149.4,68a231.5,231.5,0,0,0-19.8,48.7c-1.4,4.8-2.5,9.7-3.6,14.6a2.6,2.6,0,0,0,2.4,3.2l69.8-2.6,19.9-.7-1.3-4.6-47,27.3-13.4,7.8c-2,1.2-1.3,3.8.6,4.6l36,15.1a2.5,2.5,0,0,0,3.1-1.8,2.7,2.7,0,0,0-1.7-3.1l-36.1-15,.6,4.5L206,138.7l13.3-7.8c2.1-1.2,1.3-4.8-1.2-4.7l-69.7,2.6-20,.7,2.4,3.2a227.4,227.4,0,0,1,16.3-49c2-4.5,4.3-8.9,6.7-13.2.9-1.7-.7-4.5-2.9-3.7A159.2,159.2,0,0,0,100.3,99a152.9,152.9,0,0,0-11.7,12.4h3.6A109.7,109.7,0,0,1,69.7,67.9a125.4,125.4,0,0,1-2.6-13.6A2.6,2.6,0,0,0,65,51.8a2.6,2.6,0,0,0-2.8,1.8,170.4,170.4,0,0,0-5,70.3,166.1,166.1,0,0,0,4,19.6l3.6-2.8a196.4,196.4,0,0,1-41.3-30c-2-1.9-5.4.6-3.9,3.1a268.8,268.8,0,0,0,31.9,43.9c2.1,2.4,5.6-1.1,3.5-3.5Z"/></svg>