<svg id="Layer_1" data-name="Layer 1" xmlns="http://www.w3.org/2000/svg" viewBox="0 0 209.4 209.4"><defs><style>.cls-1{fill:#f39200;}</style></defs><title>0</title><path class="cls-1" d="M160.9,27.4A154.7,154.7,0,0,0,110,53.1,157.7,157.7,0,0,0,71.5,95.6a127.8,127.8,0,0,0-6.8,12.6,84.2,84.2,0,0,0-6.1,15.3c-1.5,5.4-2.1,11.5-.3,16.9a21.7,21.7,0,0,0,8.6,11.4,15.2,15.2,0,0,0,13.6,1.8c4.8-1.8,8.3-5.6,11.4-9.6a279.4,279.4,0,0,0,19-29.1c5.7-9.8,10.7-20,15.7-30.3s9.6-19.4,16.1-27.9a73.4,73.4,0,0,1,5.1-6l-4.2-1.1c1.9,4.5.4,9.1-1.6,13.3s-4.8,9-7.1,13.6a291.8,291.8,0,0,0-12.6,28.6,286.6,286.6,0,0,0-9.8,29.7c-2.8,10.4-4.9,21.1-3.4,31.8,1.1,8.4,4.9,16.6,11.3,22.3a26.8,26.8,0,0,0,10.8,6c4.3,1.3,9.6,1.4,12.6-2.5s2.9-8.8,3.4-13.2.8-11.1.9-16.6c.3-11,0-22-.1-32.9,0-5.5,0-11,.2-16.5a106.6,106.6,0,0,1,.9-13.8c.9-6.4,3-14.4,8.5-18.2a12.4,12.4,0,0,1,4.2-2c3.2-.8,1.8-5.6-1.3-4.8-7.4,1.9-11.9,8.3-14.2,15.2s-3,17.2-3.2,25.8c-.5,21.7,1.2,43.4-1.1,65a46.2,46.2,0,0,1-.9,6.5,4.9,4.9,0,0,1-2.6,3.5c-1.7.7-3.9.3-5.6-.2a16.2,16.2,0,0,1-5.1-2.1c-6.6-3.8-11.1-10.7-13-18-2.6-9.8-.9-20.3,1.5-30a294.3,294.3,0,0,1,9.1-29.4,298.4,298.4,0,0,1,12-28c2.2-4.5,4.6-9.1,7-13.5s4.6-8.9,5.1-13.9a14,14,0,0,0-1.1-7c-.6-1.7-2.7-2.6-4.1-1.1-14.7,15.5-22,36.1-31.9,54.7a327.1,327.1,0,0,1-17.4,29,107.2,107.2,0,0,1-9.3,12.8c-2.7,3-6.1,5.9-10.5,5.8s-7.5-2.8-9.7-5.9-3.6-8.6-3.1-13.4,2.5-10.6,4.7-15.4,4-8.4,6.2-12.4a153.2,153.2,0,0,1,35.2-41.7,148.1,148.1,0,0,1,47.3-26.5l6.5-2c3.1-.8,1.7-5.7-1.4-4.8Z"/></svg>